<svg id="Layer_1" data-name="Layer 1" xmlns="http://www.w3.org/2000/svg" viewBox="0 0 826.69 336.06"><defs><style>.cls-1{fill:#ff8288;}</style></defs><path class="cls-1" d="M439.61,116.14h-33.5a2.71,2.71,0,0,1-2.71-2.71V107c0-16,4.51-17.68,6.45-17.68h26c1.94,0,6.45,1.72,6.45,17.68v6.4A2.71,2.71,0,0,1,439.61,116.14Zm-30.79-5.42H436.9V107c0-6.58-1.07-10.88-1.81-12.25H410.63c-.74,1.37-1.81,5.67-1.81,12.25Z"/><path class="cls-1" d="M436.3,94.78H409.42a2.72,2.72,0,0,1-2.71-2.72v-6.4c0-11.73,1.92-17.68,5.71-17.68H433.3c3.79,0,5.71,6,5.71,17.68v6.4A2.72,2.72,0,0,1,436.3,94.78Zm-24.16-5.43h21.44V85.66c0-6.35-.8-10.64-1.4-12.25H413.54c-.6,1.61-1.4,5.9-1.4,12.25Z"/><path class="cls-1" d="M433,73.41H412.73A2.71,2.71,0,0,1,410,70.7V64.29c0-17.67,3.36-17.67,5-17.67h15.73c1.61,0,5,0,5,17.67V70.7A2.71,2.71,0,0,1,433,73.41ZM415.45,68h14.82V64.29a55.34,55.34,0,0,0-1-12.25H416.48a55.34,55.34,0,0,0-1,12.25Z"/><polygon class="cls-1" points="425.57 122.68 425.57 289.44 446.44 261.53 439.12 126.81 425.57 122.68"/><polygon class="cls-1" points="420.15 122.68 420.15 289.44 399.28 261.53 406.6 126.81 420.15 122.68"/><path class="cls-1" d="M462.5,122.37l-39.64-13-39.64,13s-8.22,2.09-6.74,7.81c.81,3.08,5,4.25,9.64,4.25,6,0,12.82-1.91,14.52-4.16,2.4-3.19-2.38-6.59-2.38-6.59l24.6-7.5,24.6,7.5s-4.78,3.4-2.38,6.59c1.7,2.25,8.53,4.16,14.52,4.16,4.68,0,8.84-1.17,9.64-4.25C470.72,124.46,462.5,122.37,462.5,122.37Z"/></svg>