<svg id="Layer_1" data-name="Layer 1" xmlns="http://www.w3.org/2000/svg" viewBox="0 0 1920 3855"><defs><style>.cls-1{fill:#f0f0f0;}.cls-2{fill:none;stroke:#ffd773;stroke-linecap:round;stroke-miterlimit:10;stroke-width:15px;stroke-dasharray:25 50;}</style></defs><rect class="cls-1" y="7.5" width="1920" height="1920"/><path class="cls-2" d="M1509.75,7.5S1659.18,364.26,1669,495c9.76,129.66-62.83,386.19-109.1,503.37-54.19,137.26-223.56,366.59-290.18,495.35-29,56.12-79.91,176.07-91.64,241-8.5,47,0,192.78,0,192.78"/><path class="cls-2" d="M1873.72,7.5s-18,300.17-25.17,391.82c-6,76.94-20,214.15-27.9,269.8-12.26,86.44-40.5,199.79-51.9,298-5.88,50.66-14.72,185.12-17.75,257.71-3.35,80.23-5.09,264.4-2.73,348.32,3,108.73,19.8,271.9,27.31,354.36"/><path class="cls-2" d="M1175.83,7.5S1164.4,222.21,1213,374.13c47,146.82,135.47,252.3,186.1,328.88,36.57,55.31,115.57,123.33,143,226.1,31.87,119.54,35.9,387,21.58,513.88-14.78,130.89-103.11,367.52-145,484.51"/><path class="cls-2" d="M981.27,7.5s-158.88,198.7-204,317.11c-33.82,88.67-37.85,284-53.52,378.19-16,96.32-42.68,222.67-117.07,371.12-79,157.65-240.61,259-316.08,349.92-41,49.4-97,127.24-97,242.11,0,111.33,88.64,261.55,88.64,261.55"/><path class="cls-2" d="M586.86,7.5s-152.6,307.24-177.18,439c-18,96.52-13.94,349.7,6.65,445.47,17.72,82.42,108.12,223.2,156.22,285.71,55.55,72.2,187.58,176.1,252.86,235.4,35.08,31.85,104.51,102.25,124.38,149.36,34.5,81.75,35.08,273.88,27.65,365.1"/><path class="cls-2" d="M28.39,7.5S47.21,126.12,65.56,163.42C104.87,243.29,239.65,387.1,270,468.94c29.53,79.61,51.21,217.19,26,297.56-20.78,66.32-181.93,220.15-171.51,300.21C139.38,1181,336,1319.83,359.08,1356.3c43.84,69.4,282.18,191.73,312.37,247.08,41.19,75.49,0,324.12,0,324.12"/><rect class="cls-1" y="1927.5" width="1920" height="1920"/><path class="cls-2" d="M1509.75,3847.5S1659.18,3490.74,1669,3360c9.76-129.66-62.83-386.19-109.1-503.37-54.19-137.26-223.56-366.59-290.18-495.35-29-56.12-79.91-176.07-91.64-241-8.5-47.05,0-192.78,0-192.78"/><path class="cls-2" d="M1873.72,3847.5s-18-300.17-25.17-391.82c-6-76.94-20-214.15-27.9-269.8-12.26-86.44-40.5-199.79-51.9-298-5.88-50.67-14.72-185.13-17.75-257.72-3.35-80.23-5.09-264.4-2.73-348.32,3-108.73,19.8-271.9,27.31-354.36"/><path class="cls-2" d="M1175.83,3847.5s-11.43-214.71,37.21-366.63c47-146.82,135.47-252.3,186.1-328.88,36.57-55.31,115.57-123.33,143-226.1,31.87-119.54,35.9-387,21.58-513.88-14.78-130.89-103.11-367.52-145-484.51"/><path class="cls-2" d="M981.27,3847.5s-158.88-198.7-204-317.11c-33.82-88.67-37.85-284-53.52-378.19-16-96.32-42.68-222.67-117.07-371.12-79-157.65-240.61-259-316.08-349.91-41-49.41-97-127.25-97-242.12,0-111.33,88.64-261.55,88.64-261.55"/><path class="cls-2" d="M586.86,3847.5s-152.6-307.23-177.18-439c-18-96.52-13.94-349.7,6.65-445.47,17.72-82.42,108.12-223.2,156.22-285.71,55.55-72.2,187.58-176.1,252.86-235.39,35.08-31.86,104.51-102.26,124.38-149.37,34.5-81.75,35.08-273.88,27.65-365.1"/><path class="cls-2" d="M28.39,3847.5s18.82-118.62,37.17-155.92c39.31-79.87,174.09-223.68,204.44-305.52,29.53-79.61,51.21-217.19,26-297.56-20.78-66.32-181.93-220.15-171.51-300.21C139.38,2674.05,336,2535.17,359.08,2498.7c43.84-69.4,282.18-191.73,312.37-247.08,41.19-75.49,0-324.12,0-324.12"/></svg>